<svg xmlns="http://www.w3.org/2000/svg" viewBox="0 0 24 24">
  <rect width="24" height="24" rx="6" fill="#0b1120" />
  <path
    fill="#f8fafc"
    d="M12 2a10 10 0 00-3.16 19.48c.5.1.68-.22.68-.48v-1.7c-2.77.6-3.35-1.17-3.35-1.17-.46-1.17-1.12-1.48-1.12-1.48-.9-.62.07-.6.07-.6 1 .07 1.53 1.04 1.53 1.04.9 1.53 2.36 1.08 2.94.83.1-.65.35-1.08.63-1.33-2.22-.25-4.56-1.1-4.56-4.9 0-1.08.4-1.97 1.04-2.66-.1-.25-.45-1.27.1-2.64 0 0 .85-.27 2.8 1.02a9.6 9.6 0 015.1 0c1.95-1.29 2.8-1.02 2.8-1.02.55 1.37.2 2.39.1 2.64.65.7 1.04 1.58 1.04 2.66 0 3.8-2.35 4.65-4.6 4.9.36.31.68.9.68 1.83v2.7c0 .26.18.58.68.48A10 10 0 0012 2z"
  />
  <circle cx="18" cy="6" r="2.3" fill="#1a73e8" />
</svg>
